<?xml version="1.0" standalone="no"?>
<!DOCTYPE svg PUBLIC "-//W3C//DTD SVG 20010904//EN"
 "http://www.w3.org/TR/2001/REC-SVG-20010904/DTD/svg10.dtd">
<svg version="1.0" xmlns="http://www.w3.org/2000/svg"
 width="514.000000pt" height="470.000000pt" viewBox="0 0 514.000000 470.000000"
 preserveAspectRatio="xMidYMid meet">

<g transform="translate(0.000000,470.000000) scale(0.100000,-0.100000)"
fill="#000000" stroke="none">
<path d="M2365 3856 c-99 -67 -394 -266 -655 -441 -261 -176 -509 -342 -550
-370 l-75 -51 -3 -910 c-2 -858 -1 -912 15 -926 19 -17 85 -55 912 -532 293
-170 541 -311 551 -313 12 -3 85 41 207 123 206 139 738 498 1066 718 l207
139 -2 921 -3 920 -734 423 c-403 233 -739 423 -745 422 -6 0 -92 -56 -191
-123z m396 -118 c98 -57 179 -106 179 -110 0 -9 -358 -249 -379 -255 -19 -4
-375 199 -370 212 6 13 362 253 377 254 8 1 94 -45 193 -101z m240 -388 c3
-196 2 -235 -10 -232 -21 4 -361 203 -361 210 0 4 78 59 172 122 94 63 176
120 182 126 6 7 12 11 12 10 1 0 3 -107 5 -236z m189 140 c56 -33 103 -60 105
-60 6 0 125 -72 125 -76 0 -5 -328 -224 -346 -231 -12 -4 -14 27 -14 211 0
180 2 216 14 216 8 0 60 -27 116 -60z m-966 -2 c50 -28 133 -76 184 -105 l93
-55 -23 -17 c-26 -20 -286 -196 -330 -223 l-28 -18 0 235 c0 129 3 235 6 235
4 0 48 -23 98 -52z m-164 -203 c0 -118 -2 -215 -4 -215 -5 0 -286 162 -325
187 l-25 16 35 18 c19 10 59 37 89 59 30 22 71 49 90 60 19 10 55 35 80 54 25
19 48 35 53 35 4 1 7 -96 7 -214z m1420 -215 c0 -126 -3 -230 -7 -230 -16 1
-365 206 -365 215 0 10 342 243 360 244 9 1 12 -51 12 -229z m-783 146 c283
-163 276 -158 261 -171 -7 -7 -98 -70 -201 -140 -121 -82 -193 -125 -204 -121
-26 10 -383 217 -388 225 -3 6 390 280 402 281 1 0 59 -33 130 -74z m1040 -41
c92 -53 171 -100 176 -104 4 -4 -78 -65 -183 -134 l-190 -127 0 236 c0 202 2
235 14 231 8 -3 91 -49 183 -102z m-1885 -57 c144 -83 175 -105 165 -115 -26
-27 -352 -241 -359 -236 -9 5 -11 414 -2 437 3 9 9 16 12 16 3 0 86 -46 184
-102z m-254 -153 c1 -115 -1 -212 -5 -216 -5 -5 -64 25 -133 65 -69 40 -146
85 -172 100 -27 15 -48 30 -48 34 0 4 12 14 28 24 15 9 90 59 167 112 77 52
145 94 150 92 6 -2 11 -83 13 -211z m1669 -76 c106 -61 196 -115 198 -120 5
-8 -376 -269 -393 -269 -5 0 -10 112 -11 250 -1 138 1 250 5 250 4 0 94 -50
201 -111z m-257 -141 c0 -145 -4 -218 -10 -218 -10 0 -250 135 -333 187 l-39
24 184 123 c117 78 186 119 190 112 4 -6 8 -109 8 -228z m912 -570 c4 -529 2
-807 -4 -815 -11 -14 -364 -253 -373 -253 -3 0 -5 366 -4 813 l0 812 182 122
c100 66 185 122 188 122 3 1 8 -360 11 -801z m-1554 642 c73 -41 132 -78 132
-81 0 -6 -341 -236 -365 -245 -13 -5 -15 21 -15 231 l0 237 58 -34 c33 -18
118 -67 190 -108z m-310 -230 l-3 -119 -180 104 c-99 57 -180 110 -180 116 0
7 81 67 180 133 l180 121 3 -117 c1 -65 1 -172 0 -238z m-695 213 c84 -47 169
-97 190 -110 l37 -23 0 -831 c0 -679 -2 -830 -13 -827 -7 2 -95 50 -195 108
l-182 104 0 833 c0 458 3 833 6 833 3 0 74 -39 157 -87z m1314 -161 c54 -31
149 -86 211 -122 61 -35 112 -67 112 -70 -1 -7 -399 -274 -414 -277 -17 -4
-421 232 -421 245 0 11 390 280 407 282 3 0 51 -26 105 -58z m801 -495 l2
-527 -195 -130 c-107 -71 -199 -130 -205 -130 -7 0 -10 175 -10 524 l0 525 28
20 c15 12 32 24 37 28 6 5 57 39 115 78 58 38 107 72 110 76 3 3 19 13 36 22
17 9 36 23 44 32 7 8 18 14 24 12 8 -3 12 -158 14 -530z m-1563 338 l140 -80
3 -553 c1 -303 -1 -552 -4 -552 -11 0 -394 222 -394 228 -5 60 -8 1072 -4
1085 6 20 -15 30 259 -128z m1095 -372 l0 -233 -181 -120 c-99 -67 -187 -124
-195 -127 -12 -5 -14 28 -12 238 l3 244 173 116 c95 64 178 121 185 128 22 22
27 -16 27 -246z m-680 134 l195 -113 3 -257 c2 -188 -1 -257 -9 -257 -6 0 -99
50 -205 111 l-194 110 0 260 c0 142 3 259 8 259 4 0 95 -51 202 -113z m680
-677 c0 -145 -4 -230 -10 -230 -5 0 -58 29 -117 63 -60 35 -138 81 -175 101
-77 42 -85 51 -60 61 23 8 336 218 340 228 2 4 8 7 13 7 5 0 9 -97 9 -230z
m-666 76 c81 -47 152 -86 157 -86 6 0 7 -5 4 -10 -5 -8 -300 -208 -372 -253
-11 -6 -13 38 -13 233 l0 240 38 -19 c21 -11 105 -58 186 -105z m1131 -575
c-3 -3 -14 0 -23 5 -9 6 -87 51 -172 99 -164 93 -194 114 -173 122 7 2 92 58
190 123 l178 118 3 -230 c1 -127 0 -233 -3 -237z m-945 178 c0 -120 -3 -219
-7 -219 -14 1 -347 197 -350 206 -3 11 339 242 350 237 4 -2 7 -103 7 -224z
m272 134 c137 -78 167 -99 156 -109 -16 -15 -327 -224 -333 -224 -3 0 -5 97
-5 215 0 118 3 215 7 215 4 0 83 -43 175 -97z m-967 -28 c89 -52 170 -97 179
-101 9 -3 16 -11 15 -18 0 -9 -125 -94 -350 -239 l-29 -19 0 236 c0 168 3 236
11 236 6 0 85 -43 174 -95z m1175 -365 c0 -153 -4 -230 -10 -230 -11 0 -262
141 -333 186 l-38 25 143 96 c79 53 161 109 183 125 22 15 43 28 48 28 4 0 7
-103 7 -230z m235 139 c88 -49 164 -94 168 -98 9 -9 -313 -231 -333 -231 -6 0
-10 71 -10 210 0 116 3 210 8 210 4 0 79 -41 167 -91z m-877 -79 c72 -41 132
-78 132 -81 0 -7 -362 -249 -373 -249 -4 0 -7 106 -7 236 l0 235 58 -33 c32
-18 117 -67 190 -108z m-308 -105 c0 -214 0 -216 -20 -205 -53 28 -316 182
-323 189 -4 4 36 37 90 72 54 35 103 68 108 72 38 31 122 86 133 86 9 1 12
-48 12 -214z m470 -265 c0 -121 -3 -220 -7 -220 -15 1 -337 195 -339 205 -2 9
320 232 339 234 4 1 7 -98 7 -219z m212 154 c62 -36 134 -77 160 -90 26 -13
48 -28 48 -32 0 -8 -314 -222 -325 -222 -3 0 -5 92 -5 205 0 113 2 205 4 205
3 0 56 -30 118 -66z"/>
</g>
</svg>
